<?xml version="1.0" standalone="no"?>
<!DOCTYPE svg PUBLIC "-//W3C//DTD SVG 20010904//EN"
 "http://www.w3.org/TR/2001/REC-SVG-20010904/DTD/svg10.dtd">
<svg version="1.0" xmlns="http://www.w3.org/2000/svg"
 width="260.000000pt" height="260.000000pt" viewBox="0 0 260.000000 260.000000"
 preserveAspectRatio="xMidYMid meet">
<metadata>
Created by potrace 1.11, written by Peter Selinger 2001-2013
</metadata>
<g transform="translate(0.000000,260.000000) scale(0.100000,-0.100000)"
fill="#000000" stroke="none">
<path d="M269 2440 c-1 -14 -3 -36 -5 -50 -1 -14 -4 -48 -5 -75 l-2 -50 -95
-3 c-53 -2 -98 -5 -100 -7 -3 -2 -2 -10 1 -18 4 -11 27 -14 100 -13 l95 2 5
-29 c2 -16 3 -102 1 -191 -4 -205 -5 -713 -2 -746 3 -22 0 -24 -22 -20 -44 9
-165 4 -185 -7 -16 -9 -11 -11 26 -10 56 0 139 -12 163 -25 18 -10 18 -26 14
-394 -2 -211 -8 -387 -12 -391 -4 -5 -47 -10 -96 -11 l-88 -4 0 -44 -1 -44 51
5 c28 3 53 7 55 9 3 2 17 1 33 -4 17 -5 32 -4 38 2 13 13 21 -19 20 -72 0 -19
0 -48 1 -65 l3 -30 12 35 c7 19 10 46 6 60 -4 14 -2 35 3 47 8 19 17 21 73 21
35 -1 61 -4 59 -9 -3 -4 -1 -11 5 -14 6 -4 9 -1 8 7 -2 10 21 13 105 15 74 1
105 -2 101 -9 -5 -7 -2 -8 7 -2 15 9 138 15 152 7 4 -3 2 -12 -5 -21 -8 -9 -8
-13 -2 -9 9 5 11 -11 9 -56 -3 -59 -2 -63 18 -63 21 0 22 4 19 69 -3 45 0 67
6 63 6 -3 12 -2 14 4 4 12 157 29 164 18 3 -4 15 -3 26 3 16 9 23 8 29 -2 5
-8 9 -9 9 -3 0 8 60 11 195 12 137 0 195 -3 195 -11 0 -7 3 -8 10 -1 15 15 96
2 92 -15 -1 -7 2 -10 8 -6 6 3 8 11 4 16 -6 10 44 5 54 -6 3 -3 6 -21 8 -40 1
-23 -2 -33 -10 -29 -6 3 -3 -1 7 -10 31 -24 44 -10 41 44 -1 28 -2 50 -1 51 1
0 78 3 171 5 138 5 167 3 160 -8 -6 -10 -5 -11 7 -1 15 12 102 16 94 4 -3 -6
27 -6 83 1 6 1 12 5 12 9 0 5 10 5 23 0 12 -5 26 -9 32 -9 5 0 11 -6 14 -13 2
-7 -2 -9 -10 -5 -8 4 -6 1 4 -7 13 -11 15 -20 9 -38 -8 -23 4 -116 14 -106 2
2 7 33 11 68 7 79 17 99 48 100 14 1 35 1 48 2 12 1 28 -2 35 -7 6 -4 12 -3
12 2 0 6 8 8 19 5 32 -8 33 15 2 38 -17 12 -27 27 -24 33 4 6 -1 4 -11 -4 -22
-17 -46 -22 -46 -9 0 6 -9 5 -21 -2 -16 -8 -20 -8 -14 1 5 8 0 7 -14 -2 -24
-15 -45 -1 -36 24 5 12 24 14 100 12 52 -1 95 2 95 7 0 14 -54 25 -146 28 -19
1 -34 7 -38 17 -4 10 -2 13 7 8 9 -5 9 -4 0 6 -10 11 -9 18 5 34 16 20 16 20
0 7 -21 -16 -20 -28 -23 224 -1 94 -5 185 -9 202 -4 18 -4 33 1 33 5 0 10 57
11 128 2 70 7 131 11 135 4 4 25 9 47 12 21 2 39 5 39 6 0 1 17 3 37 4 21 1
41 4 44 8 11 11 -67 20 -122 14 l-53 -5 -1 474 0 474 25 1 c86 2 114 1 124 -5
6 -4 11 -2 11 5 0 9 4 9 15 -1 12 -10 13 -8 10 11 -6 32 -20 37 -81 33 -32 -1
-54 1 -54 7 0 6 -7 3 -16 -5 -8 -9 -17 -16 -19 -16 -6 0 -23 68 -29 119 -7 55
-16 65 -17 20 -1 -19 -3 -47 -4 -64 -1 -16 -3 -39 -4 -51 -1 -20 -4 -21 -108
-16 -127 7 -415 7 -633 0 -163 -6 -230 -2 -230 14 0 5 4 6 10 3 5 -3 7 0 4 8
-3 8 4 37 16 66 11 28 20 54 20 57 0 13 -25 -13 -50 -53 l-28 -44 -33 46 c-18
25 -34 43 -36 42 -2 -2 6 -25 17 -51 12 -25 18 -51 14 -58 -4 -6 -3 -8 3 -5 6
4 13 0 17 -8 3 -8 2 -15 -2 -16 -4 0 -20 -3 -37 -6 -68 -13 -917 -2 -933 12
-5 4 -4 37 2 91 4 28 2 62 -3 75 l-10 24 -2 -25z m1110 -206 c32 -4 207 -4
241 0 14 1 31 -2 38 -7 7 -5 12 -6 12 0 0 12 93 11 102 -2 5 -7 8 -7 8 0 0 7
61 9 173 7 94 -2 177 -3 182 -3 6 0 38 2 72 3 l62 3 1 -135 c1 -137 7 -275 15
-319 2 -13 1 -29 -3 -35 -10 -17 -12 -46 -13 -272 l-1 -210 -31 -14 c-42 -18
-121 -101 -157 -164 -49 -88 -76 -218 -58 -288 4 -16 2 -28 -3 -28 -5 0 -10
10 -11 23 0 12 -2 33 -4 47 -2 14 -6 50 -10 80 -3 30 -7 67 -8 82 0 14 -4 24
-8 21 -5 -2 -8 3 -8 11 0 8 -10 25 -22 37 l-23 22 27 -5 c15 -3 25 -1 22 3 -3
5 0 9 7 9 8 0 8 4 -1 15 -7 8 -25 15 -40 15 -19 0 -42 13 -71 41 -24 23 -43
46 -42 50 2 5 -3 6 -11 3 -8 -3 -26 11 -44 34 -44 55 -114 191 -106 204 4 6 3
8 -3 5 -12 -7 -36 40 -28 54 4 5 2 9 -3 9 -5 0 -19 24 -31 53 -12 28 -27 62
-33 74 -6 11 -7 27 -3 34 5 7 4 10 -2 6 -10 -6 -28 27 -35 63 -2 8 -6 17 -9
20 -4 3 -32 66 -64 140 -75 179 -85 200 -108 233 -10 15 -16 35 -13 43 3 9 2
12 -4 9 -6 -3 -13 1 -17 10 -7 19 15 38 31 28 6 -4 21 -8 35 -9z m-1000 -7
c12 -9 13 -9 7 1 -4 7 -1 12 8 12 9 0 16 -6 16 -12 0 -9 3 -9 8 -3 9 14 373
15 365 1 -4 -5 -1 -6 8 0 17 11 411 15 404 4 -3 -4 4 -6 15 -3 27 7 25 -9 -6
-46 -14 -17 -23 -31 -19 -31 3 0 -5 -21 -19 -47 -14 -27 -41 -87 -60 -134 -55
-136 -91 -193 -173 -276 -69 -71 -109 -186 -115 -332 -3 -82 2 -75 -96 -117
-42 -18 -76 -42 -102 -71 -21 -25 -47 -46 -57 -47 -14 -2 -18 -12 -19 -45 0
-23 -6 -47 -12 -53 -7 -7 -12 -20 -12 -29 0 -35 -19 -28 -31 11 -7 22 -17 40
-22 40 -6 0 -7 3 -4 6 4 4 -22 36 -56 71 -34 36 -61 69 -60 74 2 4 -3 6 -10 3
-7 -2 -22 4 -32 16 -17 19 -18 41 -16 332 1 172 2 336 3 363 0 28 0 66 -2 85
-2 45 6 139 13 146 3 4 2 16 -2 28 -13 33 2 61 35 63 16 1 35 -4 43 -10z m909
-522 c25 -49 45 -96 45 -102 0 -7 4 -13 9 -13 4 0 8 -4 8 -10 0 -5 19 -49 41
-97 23 -49 42 -94 42 -100 0 -7 4 -13 8 -13 7 0 22 -39 20 -52 -1 -5 3 -8 9
-8 22 0 8 -20 -26 -36 -20 -10 -62 -43 -94 -75 -66 -66 -88 -79 -128 -79 -55
0 -133 44 -114 65 4 5 2 5 -5 2 -6 -4 -25 5 -42 19 -17 14 -31 22 -31 18 0 -4
-9 2 -20 13 -10 12 -28 24 -40 28 -20 6 -28 25 -10 25 6 0 9 4 8 8 -4 11 64
155 77 164 6 4 7 8 3 8 -11 0 42 100 53 100 6 0 8 4 4 9 -6 11 34 102 50 113
6 4 6 8 2 8 -5 0 -5 5 -2 10 5 8 11 8 19 1 9 -8 13 -7 13 4 0 8 -4 12 -9 9
-13 -8 -9 16 8 45 30 50 53 36 102 -64z m-291 -12 c-15 -27 -107 -252 -107
-262 0 -6 -5 -11 -11 -11 -5 0 -7 -4 -4 -10 3 -5 -1 -22 -9 -37 l-15 -28 0 40
c0 92 44 214 100 278 29 32 58 51 46 30z m-24 -463 c10 0 15 -4 12 -10 -3 -5
0 -7 8 -4 8 3 21 -1 28 -8 8 -7 33 -26 57 -42 54 -37 57 -42 24 -43 -15 -1
-37 -4 -49 -7 -14 -3 -23 0 -23 7 0 8 -3 8 -12 -1 -9 -9 -15 -9 -27 1 -9 7
-12 7 -8 1 9 -16 -39 -9 -60 8 -12 9 -15 9 -9 1 5 -9 2 -11 -8 -7 -25 10 -19
33 7 29 19 -4 20 -3 6 8 -14 11 -15 17 -5 35 7 13 15 20 18 16 4 -3 4 5 1 18
-5 19 -3 21 8 11 7 -7 21 -13 32 -13z m531 -5 c4 -14 6 -27 6 -30 0 -3 6 -13
15 -21 21 -21 1 -47 -32 -41 -12 2 -20 1 -17 -4 2 -4 -29 -8 -71 -8 -41 0 -75
2 -75 5 0 26 97 107 127 107 7 0 13 4 13 9 0 20 28 6 34 -17z m-725 -22 c-6
-15 -15 -33 -21 -40 -6 -7 -7 -13 -4 -13 4 0 -2 -10 -13 -22 -17 -17 -23 -19
-36 -8 -8 7 -15 9 -15 5 0 -4 -8 -1 -17 6 -9 8 -14 9 -10 2 5 -7 0 -9 -14 -6
-20 6 -20 7 6 31 30 27 103 70 122 71 9 1 10 -6 2 -26z m1492 10 c6 -99 4
-160 -5 -172 -8 -10 -8 -13 0 -9 12 8 14 -280 1 -299 -4 -6 -4 -14 1 -17 10
-6 9 -197 -2 -215 -6 -10 -5 -12 2 -7 7 4 12 1 12 -9 0 -14 -6 -13 -40 6 -21
12 -37 26 -34 31 3 4 -1 8 -9 8 -7 0 -23 10 -34 23 -27 28 -97 160 -80 151 9
-5 9 -4 0 7 -7 7 -13 17 -13 22 0 4 6 5 13 2 6 -4 4 0 -7 9 -13 11 -17 24 -14
50 2 20 1 36 -3 36 -5 0 -6 10 -3 23 2 12 7 42 10 67 3 25 10 46 14 48 5 2 7
9 4 16 -7 18 48 134 86 181 47 59 99 84 101 48z m-448 -56 c-3 -5 -1 -7 4 -4
6 4 18 -2 28 -13 18 -20 18 -20 -3 -17 -26 4 -34 12 -51 52 -13 30 -13 30 8
11 11 -10 18 -23 14 -29z m-1451 -40 c16 -16 25 -34 21 -40 -3 -5 -1 -7 5 -3
8 5 54 -53 58 -74 0 -3 4 -13 8 -22 4 -9 9 -22 10 -30 2 -7 6 -20 10 -29 11
-25 14 -170 4 -209 -16 -65 -40 -120 -49 -115 -5 4 -7 0 -4 -7 9 -23 -69 -113
-90 -104 -9 3 -12 0 -9 -8 3 -7 -7 -21 -22 -31 -26 -17 -27 -17 -21 4 3 12 1
18 -4 15 -6 -3 -7 8 -3 28 3 18 7 77 9 130 1 53 6 101 9 106 4 6 2 13 -4 17
-6 4 -8 10 -5 14 2 5 5 99 6 209 l2 201 21 -11 c11 -6 33 -25 48 -41z m341
-37 c5 -4 1 -14 -8 -23 -9 -9 -16 -19 -15 -22 1 -20 -1 -25 -9 -20 -6 3 -8 -4
-6 -15 2 -11 0 -20 -6 -20 -5 0 -9 -6 -9 -14 0 -8 -6 -21 -13 -28 -7 -7 -14
-17 -15 -23 -3 -18 -42 -105 -48 -105 -3 0 -2 5 2 12 4 7 3 8 -5 4 -6 -4 -9
-11 -6 -16 5 -8 -30 -90 -38 -90 -5 0 -10 66 -10 131 1 93 48 235 81 241 25 5
96 -3 105 -12z m1184 0 c0 -3 9 -26 21 -52 24 -51 43 -158 22 -125 -6 9 -8 22
-4 29 4 6 3 8 -3 5 -6 -4 -15 5 -21 18 -10 21 -9 23 6 19 9 -2 8 0 -4 7 -23
12 -64 85 -42 74 7 -4 5 0 -4 8 -24 19 -23 22 6 22 13 0 24 -2 23 -5z m-391
-82 c-4 7 -1 12 8 12 15 0 21 -12 17 -33 -1 -5 3 -6 8 -2 6 3 7 13 4 21 -5 13
-3 14 13 6 20 -10 25 -12 47 -12 8 0 7 -4 -3 -11 -12 -8 -10 -9 7 -4 18 5 28
-4 63 -64 23 -39 40 -78 36 -86 -3 -8 -1 -14 5 -12 14 3 51 -91 43 -105 -4 -6
-2 -8 4 -4 9 5 27 -41 22 -60 -1 -4 2 -10 7 -13 6 -3 14 -25 20 -48 10 -40 9
-43 -15 -59 -15 -10 -32 -17 -39 -17 -7 0 -10 -3 -8 -7 2 -3 -12 -14 -30 -24
-27 -15 -38 -16 -49 -7 -11 9 -15 8 -19 -3 -4 -11 -22 -14 -74 -12 -79 3 -121
24 -221 114 -29 26 -49 24 -44 -4 5 -26 62 -76 111 -99 22 -10 38 -22 34 -28
-3 -6 -2 -7 4 -4 5 3 38 -1 74 -9 35 -8 74 -13 87 -11 27 5 38 -9 22 -28 -9
-11 -35 -15 -89 -15 -42 0 -119 -1 -171 -3 -52 -1 -104 2 -115 7 -29 14 -56
13 -91 -1 -25 -10 -40 -9 -75 1 -27 8 -87 12 -156 10 -62 -1 -113 1 -113 6 0
4 16 10 35 12 19 2 35 0 35 -4 0 -5 8 -4 19 1 10 6 33 13 52 16 114 19 213
113 265 250 6 17 8 18 11 3 2 -9 11 -19 19 -22 9 -3 12 -1 9 4 -3 6 -2 10 4
10 5 0 0 18 -11 41 -15 32 -17 44 -7 55 8 10 8 14 0 14 -7 0 -8 8 -2 23 4 12
7 37 6 55 -1 26 2 32 14 27 11 -3 9 0 -3 10 -22 16 -23 16 56 19 14 0 24 4 21
8 -2 5 6 12 19 17 13 5 33 17 45 27 60 51 66 54 82 41 12 -9 13 -9 7 1z m-516
-31 c0 -4 -5 -5 -12 -1 -7 4 -8 3 -4 -5 4 -6 12 -8 18 -5 6 4 17 -1 25 -11 7
-11 13 -16 13 -12 0 4 18 -2 41 -13 22 -12 53 -23 69 -25 65 -8 67 -10 76 -93
4 -42 7 -90 6 -106 -8 -99 -162 -252 -261 -259 -16 -1 -27 -5 -24 -9 2 -5 -15
-8 -39 -8 -41 0 -71 10 -69 24 5 33 -1 124 -9 136 -11 18 -23 8 -24 -22 -1
-13 -6 -29 -10 -37 -5 -8 -5 -12 0 -9 5 4 9 -11 9 -32 0 -36 -1 -37 -23 -29
-38 14 -108 58 -126 77 -16 18 -19 72 -4 72 4 0 7 3 6 8 -4 17 24 94 41 111 9
9 15 23 13 29 -2 7 1 12 8 12 6 0 8 5 5 10 -3 6 -1 10 6 10 7 0 10 3 6 6 -7 7
17 60 38 84 8 8 13 17 13 20 -2 10 54 92 59 86 3 -3 15 -1 26 5 15 9 18 8 11
-3 -6 -11 -5 -11 9 1 14 11 17 11 17 0 0 -10 3 -10 8 -3 16 25 82 17 82 -9z
m88 4 c8 -9 11 -10 7 -3 -3 6 -3 12 2 13 4 0 20 2 36 4 19 3 25 0 21 -8 -5 -8
-3 -8 7 1 16 14 63 17 54 2 -3 -5 -2 -10 4 -10 5 0 8 -8 6 -17 -2 -10 -4 -22
-4 -27 -1 -7 -27 -5 -92 7 -14 3 -89 46 -89 51 0 10 38 0 48 -13z m302 1 c0
-7 -4 -11 -9 -7 -5 3 -13 0 -17 -6 -4 -8 -9 -7 -15 2 -7 11 -9 10 -9 -3 0 -10
-7 -18 -15 -18 -8 0 -15 -4 -15 -10 0 -16 -37 -11 -44 6 -18 46 -9 53 59 51
47 -1 65 -5 65 -15z m30 14 c0 -3 -4 -8 -10 -11 -5 -3 -10 -1 -10 4 0 6 5 11
10 11 6 0 10 -2 10 -4z"/>
<path d="M1366 2178 c3 -5 10 -6 15 -3 13 9 11 12 -6 12 -8 0 -12 -4 -9 -9z"/>
<path d="M1406 2182 c-3 -5 1 -9 9 -9 8 0 12 4 9 9 -3 4 -7 8 -9 8 -2 0 -6 -4
-9 -8z"/>
<path d="M1415 2061 c-3 -5 -2 -12 3 -15 5 -3 9 1 9 9 0 17 -3 19 -12 6z"/>
<path d="M1130 2136 c0 -2 8 -10 18 -17 15 -13 16 -12 3 4 -13 16 -21 21 -21
13z"/>
<path d="M1222 1764 c10 -10 20 -16 22 -13 3 3 -5 11 -17 18 -21 13 -21 12 -5
-5z"/>
<path d="M1196 1747 c3 -10 9 -15 12 -12 3 3 0 11 -7 18 -10 9 -11 8 -5 -6z"/>
<path d="M1196 1673 c-6 -14 -5 -15 5 -6 7 7 10 15 7 18 -3 3 -9 -2 -12 -12z"/>
<path d="M1253 1649 c-2 -23 3 -25 10 -4 4 8 3 16 -1 19 -4 3 -9 -4 -9 -15z"/>
<path d="M1177 1635 c-4 -8 -3 -16 1 -19 4 -3 9 4 9 15 2 23 -3 25 -10 4z"/>
<path d="M1030 1399 c0 -5 5 -7 10 -4 6 3 10 8 10 11 0 2 -4 4 -10 4 -5 0 -10
-5 -10 -11z"/>
<path d="M1207 1360 c-5 -21 0 -25 21 -11 10 6 10 10 -1 20 -12 9 -16 7 -20
-9z"/>
<path d="M1010 1339 c0 -5 5 -7 10 -4 6 3 10 8 10 11 0 2 -4 4 -10 4 -5 0 -10
-5 -10 -11z"/>
<path d="M1446 1182 c-3 -5 1 -9 9 -9 8 0 12 4 9 9 -3 4 -7 8 -9 8 -2 0 -6 -4
-9 -8z"/>
<path d="M2086 938 c3 -5 10 -6 15 -3 13 9 11 12 -6 12 -8 0 -12 -4 -9 -9z"/>
<path d="M2095 911 c-3 -5 -2 -12 3 -15 5 -3 9 1 9 9 0 17 -3 19 -12 6z"/>
<path d="M2094 856 c1 -8 5 -18 8 -22 4 -3 5 1 4 10 -1 8 -5 18 -8 22 -4 3 -5
-1 -4 -10z"/>
<path d="M2187 679 c7 -7 15 -10 18 -7 3 3 -2 9 -12 12 -14 6 -15 5 -6 -5z"/>
<path d="M336 1062 c-2 -4 -1 -14 4 -22 7 -11 9 -9 7 8 -1 24 -3 26 -11 14z"/>
<path d="M416 1022 c-2 -4 -1 -14 4 -22 7 -11 9 -9 7 8 -1 24 -3 26 -11 14z"/>
<path d="M570 899 c0 -5 5 -7 10 -4 6 3 10 8 10 11 0 2 -4 4 -10 4 -5 0 -10
-5 -10 -11z"/>
<path d="M1546 918 c3 -4 9 -8 15 -8 5 0 9 4 9 8 0 5 -7 9 -15 9 -8 0 -12 -4
-9 -9z"/>
<path d="M1390 905 c0 -7 30 -13 34 -7 3 4 -4 9 -15 9 -10 1 -19 0 -19 -2z"/>
<path d="M1310 880 c0 -5 5 -10 11 -10 5 0 7 5 4 10 -3 6 -8 10 -11 10 -2 0
-4 -4 -4 -10z"/>
<path d="M1315 840 c3 -5 8 -10 11 -10 2 0 4 5 4 10 0 6 -5 10 -11 10 -5 0 -7
-4 -4 -10z"/>
<path d="M1680 840 c-9 -6 -10 -10 -3 -10 6 0 15 5 18 10 8 12 4 12 -15 0z"/>
<path d="M1602 819 c2 -6 7 -10 11 -10 4 1 15 1 25 1 14 0 15 2 2 10 -20 13
-43 13 -38 -1z"/>
<path d="M1660 565 c-6 -19 -9 -44 -5 -55 12 -37 23 -20 23 35 -1 30 -2 55 -4
55 -1 0 -8 -16 -14 -35z"/>
<path d="M930 939 c0 -5 5 -7 10 -4 6 3 10 8 10 11 0 2 -4 4 -10 4 -5 0 -10
-5 -10 -11z"/>
<path d="M833 915 c0 -8 4 -12 9 -9 5 3 6 10 3 15 -9 13 -12 11 -12 -6z"/>
<path d="M850 835 c0 -9 7 -23 16 -32 12 -13 18 -13 27 -3 9 10 9 14 -1 17 -7
3 -19 11 -27 20 -13 13 -15 13 -15 -2z"/>
<path d="M1153 833 c0 -9 4 -10 14 -2 7 6 13 12 13 14 0 1 -6 2 -13 2 -8 0
-14 -6 -14 -14z"/>
<path d="M810 819 c0 -5 5 -7 10 -4 6 3 10 8 10 11 0 2 -4 4 -10 4 -5 0 -10
-5 -10 -11z"/>
<path d="M754 800 c0 -13 4 -16 10 -10 7 7 7 13 0 20 -6 6 -10 3 -10 -10z"/>
<path d="M715 680 c3 -5 8 -10 11 -10 2 0 4 5 4 10 0 6 -5 10 -11 10 -5 0 -7
-4 -4 -10z"/>
<path d="M675 640 c-3 -5 -1 -10 4 -10 6 0 11 5 11 10 0 6 -2 10 -4 10 -3 0
-8 -4 -11 -10z"/>
<path d="M710 639 c0 -5 5 -7 10 -4 6 3 10 8 10 11 0 2 -4 4 -10 4 -5 0 -10
-5 -10 -11z"/>
<path d="M695 591 c-3 -5 -2 -12 3 -15 5 -3 9 1 9 9 0 17 -3 19 -12 6z"/>
<path d="M655 540 c3 -5 8 -10 11 -10 2 0 4 5 4 10 0 6 -5 10 -11 10 -5 0 -7
-4 -4 -10z"/>
<path d="M1144 942 c4 -3 14 -7 22 -8 9 -1 13 0 10 4 -4 3 -14 7 -22 8 -9 1
-13 0 -10 -4z"/>
<path d="M1276 958 c3 -5 10 -6 15 -3 13 9 11 12 -6 12 -8 0 -12 -4 -9 -9z"/>
<path d="M1267 939 c7 -7 15 -10 18 -7 3 3 -2 9 -12 12 -14 6 -15 5 -6 -5z"/>
<path d="M2387 2119 c7 -7 15 -10 18 -7 3 3 -2 9 -12 12 -14 6 -15 5 -6 -5z"/>
<path d="M2339 1208 c-5 -18 -6 -38 -1 -34 7 8 12 36 6 36 -2 0 -4 -1 -5 -2z"/>
<path d="M2357 843 c8 -3 9 -12 3 -28 -7 -18 -5 -23 6 -21 40 6 41 51 1 53
-12 0 -17 -1 -10 -4z"/>
<path d="M156 783 c-10 -25 10 -39 23 -15 10 19 6 32 -10 32 -4 0 -10 -8 -13
-17z"/>
<path d="M1095 300 c-2 -3 5 -7 16 -7 10 -1 19 2 19 6 0 9 -29 10 -35 1z"/>
<path d="M1530 300 c0 -5 5 -10 11 -10 5 0 7 5 4 10 -3 6 -8 10 -11 10 -2 0
-4 -4 -4 -10z"/>
<path d="M1890 300 c0 -5 5 -10 11 -10 5 0 7 5 4 10 -3 6 -8 10 -11 10 -2 0
-4 -4 -4 -10z"/>
<path d="M1926 302 c-3 -5 1 -9 9 -9 8 0 12 4 9 9 -3 4 -7 8 -9 8 -2 0 -6 -4
-9 -8z"/>
<path d="M2055 300 c3 -5 8 -10 11 -10 2 0 4 5 4 10 0 6 -5 10 -11 10 -5 0 -7
-4 -4 -10z"/>
<path d="M2353 289 c-2 -23 3 -25 10 -4 4 8 3 16 -1 19 -4 3 -9 -4 -9 -15z"/>
<path d="M870 296 c0 -2 8 -10 18 -17 15 -13 16 -12 3 4 -13 16 -21 21 -21 13z"/>
<path d="M2436 287 c3 -10 9 -15 12 -12 3 3 0 11 -7 18 -10 9 -11 8 -5 -6z"/>
<path d="M716 278 c3 -5 10 -6 15 -3 13 9 11 12 -6 12 -8 0 -12 -4 -9 -9z"/>
<path d="M1460 286 c0 -2 8 -10 18 -17 15 -13 16 -12 3 4 -13 16 -21 21 -21
13z"/>
<path d="M2210 280 c0 -5 5 -10 11 -10 5 0 7 5 4 10 -3 6 -8 10 -11 10 -2 0
-4 -4 -4 -10z"/>
<path d="M295 260 c3 -5 8 -10 11 -10 2 0 4 5 4 10 0 6 -5 10 -11 10 -5 0 -7
-4 -4 -10z"/>
<path d="M375 260 c3 -5 8 -10 11 -10 2 0 4 5 4 10 0 6 -5 10 -11 10 -5 0 -7
-4 -4 -10z"/>
<path d="M2246 258 c3 -5 10 -6 15 -3 13 9 11 12 -6 12 -8 0 -12 -4 -9 -9z"/>
<path d="M2375 260 c3 -5 8 -10 11 -10 2 0 4 5 4 10 0 6 -5 10 -11 10 -5 0 -7
-4 -4 -10z"/>
<path d="M2415 260 c-3 -5 -1 -10 4 -10 6 0 11 5 11 10 0 6 -2 10 -4 10 -3 0
-8 -4 -11 -10z"/>
<path d="M1589 243 c-13 -16 -12 -17 4 -4 16 13 21 21 13 21 -2 0 -10 -8 -17
-17z"/>
<path d="M1706 202 c-3 -5 1 -9 9 -9 8 0 12 4 9 9 -3 4 -7 8 -9 8 -2 0 -6 -4
-9 -8z"/>
<path d="M2355 201 c-3 -5 -2 -12 3 -15 5 -3 9 1 9 9 0 17 -3 19 -12 6z"/>
</g>
</svg>
